:SAMPLES-PER-SECOND 30
:FULLY-SPECIFIED
:DEGREES
473
root  3.43871 18.2969 -58.4972 -118.343 6.03722 -177.952
RightUpLeg  -65.4471 1.95776 5.08182
RightLeg  109.07 21.6028 -14.4807
RightFoot  4.28322 -0.574027 3.53866
RightToes  -5.82073e-011 -3.18055e-015 -2.98177e-016
Spine  32.2981 -3.11193 8.71402
Spine1  -9.16349 -0.438577 -9.53352
HEad  -13.5208 -0.714638 4.35871
LeftShoulder1  -3.88251e-019 9.70628e-020 -3.87848e-018
LeftArm  -3.15768 -27.2973 -65.7785
LeftForeArm  -3.32651 -0.948624 -4.96567
LeftHand  -9.89678 -9.43491 69.9524
RightShoulder  1.44455 5.90062 6.25564
RightArm  0.406779 19.4306 72.4422
RightForeArm  3.81354 2.38437 -6.45784
RightHand  -10.872 9.55591 -72.6255
LeftUpLeg  -62.9183 2.04473 -8.62985
LeftLeg  117.147 -13.3387 0.223308
LeftFoot  -18.5976 -0.84423 -16.3966
LeftToes  -2.27483e-011 -5.53417e-011 9.36564e-012
474
root  3.46391 18.3077 -58.5217 -118.392 6.05003 -177.962
RightUpLeg  -65.3301 1.9881 5.14427
RightLeg  108.934 21.6239 -14.6096
RightFoot  4.35773 -0.568121 3.48274
RightToes  -5.82073e-011 -3.18055e-015 -2.98177e-016
Spine  32.3825 -3.1032 8.61626
Spine1  -9.17409 -0.449895 -9.49643
HEad  -13.4467 -0.663611 4.42065
LeftShoulder1  -3.88251e-019 9.70628e-020 -3.87848e-018
LeftArm  -3.25765 -27.2268 -65.5719
LeftForeArm  -3.31099 -0.968801 -5.07128
LeftHand  -9.91743 -9.4651 69.9519
RightShoulder  1.45024 5.91264 6.28425
RightArm  0.476274 19.3604 72.4214
RightForeArm  3.73595 2.59138 -6.43648
RightHand  -10.8663 9.54564 -72.6343
LeftUpLeg  -62.835 2.37383 -9.38679
LeftLeg  116.664 -14.2826 1.98532
LeftFoot  -18.6409 -0.858 -16.5468
LeftToes  -2.27483e-011 -5.53417e-011 9.36564e-012
475
root  3.48615 18.3118 -58.5413 -118.39 6.03889 -177.925
RightUpLeg  -65.2757 2.06882 5.24672
RightLeg  108.824 21.6497 -14.7337
RightFoot  4.43839 -0.565987 3.46823
RightToes  -5.82073e-011 -3.18055e-015 -2.98177e-016
Spine  32.4277 -3.12645 8.59559
Spine1  -9.20349 -0.482446 -9.49254
HEad  -13.4469 -0.559349 4.46405
LeftShoulder1  -3.88251e-019 9.70628e-020 -3.87848e-018
LeftArm  -3.28689 -27.1063 -65.3265
LeftForeArm  -3.36667 -0.984771 -5.15554
LeftHand  -9.95112 -9.51036 69.966
RightShoulder  1.45593 5.94037 6.29284
RightArm  0.620189 19.4206 72.5008
RightForeArm  3.6342 2.59892 -6.33794
RightHand  -10.8532 9.51591 -72.6766
LeftUpLeg  -62.8305 2.69214 -10.0497
LeftLeg  116.214 -15.167 3.67767
LeftFoot  -18.7 -0.866109 -16.5332
LeftToes  -2.27483e-011 -5.53417e-011 9.36564e-012
476
root  3.50296 18.3138 -58.5595 -118.385 6.02367 -177.902
RightUpLeg  -65.2191 2.15762 5.31996
RightLeg  108.747 21.6623 -14.8093
RightFoot  4.45451 -0.57368 3.55616
RightToes  -5.82073e-011 -3.18055e-015 -2.98177e-016
Spine  32.4446 -3.12997 8.56371
Spine1  -9.21139 -0.507641 -9.40172
HEad  -13.5501 -0.490095 4.44823
LeftShoulder1  -3.88251e-019 9.70628e-020 -3.87848e-018
LeftArm  -3.32817 -26.9523 -65.1609
LeftForeArm  -3.4281 -0.992002 -5.19403
LeftHand  -9.97923 -9.53798 70.0155
RightShoulder  1.44198 5.93793 6.18835
RightArm  0.642401 19.4753 72.6959
RightForeArm  3.69012 2.47292 -6.32473
RightHand  -10.8354 9.48771 -72.6895
LeftUpLeg  -62.8417 2.95775 -10.6469
LeftLeg  115.791 -15.8894 5.09734
LeftFoot  -18.6928 -0.879044 -16.814
LeftToes  -2.27483e-011 -5.53417e-011 9.36564e-012
477
root  3.51447 18.3202 -58.5797 -118.405 6.02153 -177.93
RightUpLeg  -65.1381 2.17807 5.33402
RightLeg  108.675 21.6595 -14.8468
RightFoot  4.44343 -0.578634 3.61672
RightToes  -5.82073e-011 -3.18055e-015 -2.98177e-016
Spine  32.4371 -3.08938 8.45775
Spine1  -9.15679 -0.508513 -9.19476
HEad  -13.6154 -0.447243 4.42448
LeftShoulder1  -3.88251e-019 9.70628e-020 -3.87848e-018
LeftArm  -3.44068 -26.8436 -65.0726
LeftForeArm  -3.48049 -0.999057 -5.23151
LeftHand  -9.96946 -9.52036 70.0282
RightShoulder  1.42289 5.91517 6.06982
RightArm  0.570892 19.4435 72.8426
RightForeArm  3.85436 2.45469 -6.40493
RightHand  -10.8203 9.46932 -72.6804
LeftUpLeg  -62.8166 3.16378 -11.1874
LeftLeg  115.376 -16.4448 6.2281
LeftFoot  -18.6295 -0.896256 -17.3545
LeftToes  -2.27483e-011 -5.53417e-011 9.36564e-012
478
root  3.52128 18.3258 -58.591 -118.429 6.02336 -177.96
RightUpLeg  -65.0828 2.12438 5.34199
RightLeg  108.626 21.6582 -14.87
RightFoot  4.44672 -0.569522 3.53277
RightToes  -5.82073e-011 -3.18055e-015 -2.98177e-016
Spine  32.4272 -3.0504 8.34824
Spine1  -9.10066 -0.515836 -8.96914
HEad  -13.5252 -0.344121 4.38792
LeftShoulder1  -3.88251e-019 9.70628e-020 -3.87848e-018
LeftArm  -3.55842 -26.7769 -64.943
LeftForeArm  -3.57398 -1.01441 -5.31291
LeftHand  -9.94018 -9.48895 69.9865
RightShoulder  1.42506 5.92211 6.07778
RightArm  0.583943 19.4114 72.8735
RightForeArm  3.96409 2.57516 -6.44234
RightHand  -10.8298 9.46704 -72.737
LeftUpLeg  -62.7939 3.32477 -11.6004
LeftLeg  115.058 -16.8634 7.09767
LeftFoot  -18.5908 -0.909615 -17.7478
LeftToes  -2.27483e-011 -5.53417e-011 9.36564e-012
479
root  3.52302 18.3234 -58.5878 -118.449 6.02731 -177.947
RightUpLeg  -65.0604 2.08498 5.36602
RightLeg  108.64 21.6572 -14.8648
RightFoot  4.43127 -0.559069 3.43418
RightToes  -5.82073e-011 -3.18055e-015 -2.98177e-016
Spine  32.4685 -3.06286 8.31883
Spine1  -9.13016 -0.560205 -8.82456
HEad  -13.375 -0.198439 4.29711
LeftShoulder1  -3.88251e-019 9.70628e-020 -3.87848e-018
LeftArm  -3.59488 -26.6668 -64.7734
LeftForeArm  -3.70523 -1.02768 -5.38365
LeftHand  -9.936 -9.48324 69.9851
RightShoulder  1.4405 5.95205 6.15917
RightArm  0.707978 19.4688 72.9169
RightForeArm  3.99754 2.63575 -6.38828
RightHand  -10.866 9.48494 -72.8549
LeftUpLeg  -62.7868 3.42808 -11.8285
LeftLeg  114.912 -17.1346 7.65155
LeftFoot  -18.6185 -0.9191 -17.851
LeftToes  -2.27483e-011 -5.53417e-011 9.36564e-012
480
root  3.52023 18.3197 -58.5881 -118.468 6.04112 -177.936
RightUpLeg  -65.0337 2.10385 5.34573
RightLeg  108.669 21.6506 -14.8317
RightFoot  4.39955 -0.560582 3.4594
RightToes  -5.82073e-011 -3.18055e-015 -2.98177e-016
Spine  32.5588 -3.11101 8.31592
Spine1  -9.21768 -0.624973 -8.75389
HEad  -13.3298 -0.131965 4.20465
LeftShoulder1  -3.88251e-019 9.70628e-020 -3.87848e-018
LeftArm  -3.587 -26.5104 -64.6787
LeftForeArm  -3.81307 -1.02483 -5.36951
LeftHand  -9.94584 -9.48083 70.0477
RightShoulder  1.43324 5.93799 6.12087
RightArm  0.801102 19.5558 73.0884
RightForeArm  4.02753 2.56173 -6.33871
RightHand  -10.8942 9.50443 -72.9263
LeftUpLeg  -62.75 3.44426 -11.9097
LeftLeg  114.869 -17.2185 7.8231
LeftFoot  -18.6702 -0.926208 -17.8274
LeftToes  -2.27483e-011 -5.53417e-011 9.36564e-012
481
root  3.515 18.3252 -58.6068 -118.465 6.08749 -177.98
RightUpLeg  -65.0041 2.11017 5.24629
RightLeg  108.63 21.6302 -14.8109
RightFoot  4.41608 -0.562673 3.48632
RightToes  -5.82073e-011 -3.18055e-015 -2.98177e-016
Spine  32.6326 -3.15282 8.24219
Spine1  -9.27244 -0.680842 -8.69704
HEad  -13.3972 -0.15727 4.21455
LeftShoulder1  -3.88251e-019 9.70628e-020 -3.87848e-018
LeftArm  -3.61026 -26.4126 -64.6215
LeftForeArm  -3.90331 -1.01815 -5.33514
LeftHand  -9.92616 -9.44804 70.0633
RightShoulder  1.38988 5.84861 5.89768
RightArm  0.783667 19.5738 73.3631
RightForeArm  4.0564 2.48767 -6.37324
RightHand  -10.8899 9.50174 -72.9142
LeftUpLeg  -62.6852 3.38563 -11.9065
LeftLeg  114.837 -17.1162 7.63834
LeftFoot  -18.6796 -0.921679 -17.7065
LeftToes  -2.27483e-011 -5.53417e-011 9.36564e-012
482
root  3.50771 18.3345 -58.6271 -118.442 6.14619 -178.031
RightUpLeg  -64.9951 2.06751 5.13794
RightLeg  108.555 21.6103 -14.8139
RightFoot  4.45776 -0.553929 3.40091
RightToes  -5.82073e-011 -3.18055e-015 -2.98177e-016
Spine  32.6782 -3.1852 8.14612
Spine1  -9.29908 -0.72906 -8.6299
HEad  -13.4811 -0.136615 4.32346
LeftShoulder1  -3.88251e-019 9.70628e-020 -3.87848e-018
LeftArm  -3.63894 -26.4009 -64.4372
LeftForeArm  -4.0338 -1.03287 -5.41333
LeftHand  -9.89492 -9.41848 70.0038
RightShoulder  1.3405 5.73564 5.65436
RightArm  0.713181 19.5403 73.6556
RightForeArm  4.07176 2.50014 -6.46683
RightHand  -10.8717 9.48369 -72.8886
LeftUpLeg  -62.6448 3.30403 -11.801
LeftLeg  114.873 -16.8892 7.1967
LeftFoot  -18.6558 -0.901586 -17.379
LeftToes  -2.27483e-011 -5.53417e-011 9.36564e-012
